<?xml version="1.0" encoding="utf-8"?>
<!-- Generator: Adobe Illustrator 17.1.0, SVG Export Plug-In . SVG Version: 6.00 Build 0)  -->
<!DOCTYPE svg PUBLIC "-//W3C//DTD SVG 1.1//EN" "http://www.w3.org/Graphics/SVG/1.1/DTD/svg11.dtd">
<svg version="1.1" id="Layer_1" xmlns="http://www.w3.org/2000/svg" xmlns:xlink="http://www.w3.org/1999/xlink" x="0px" y="0px"
	 viewBox="0 0 64 64" enable-background="new 0 0 64 64" xml:space="preserve">
<circle fill="#F5CF87" cx="32" cy="32" r="32"/>
<g opacity="0.2">
	<path fill="#231F20" d="M36.053,49c-0.284,0-0.569-0.035-0.847-0.104l-9.704-2.414c-1.873-0.466-3.017-2.369-2.551-4.241
		l1.448-5.823c0.389-1.563,1.785-2.655,3.395-2.655c0.284,0,0.569,0.035,0.847,0.104l9.704,2.414
		c1.873,0.466,3.017,2.369,2.551,4.241l-1.448,5.823C39.059,47.908,37.663,49,36.053,49z M27.794,36.763
		c-0.188,0-0.419,0.119-0.484,0.38l-1.448,5.822c-0.066,0.268,0.097,0.54,0.365,0.606l9.704,2.414
		c0.227,0.058,0.527-0.047,0.606-0.365l1.448-5.822c0.066-0.268-0.097-0.54-0.365-0.606l-9.704-2.414
		C27.876,36.768,27.835,36.763,27.794,36.763z"/>
</g>
<g>
	<path fill="#4F5D73" d="M36.053,47c-0.284,0-0.569-0.035-0.847-0.104l-9.704-2.414c-1.873-0.466-3.017-2.369-2.551-4.241
		l1.448-5.823c0.389-1.563,1.785-2.655,3.395-2.655c0.284,0,0.569,0.035,0.847,0.104l9.704,2.414
		c1.873,0.466,3.017,2.369,2.551,4.241l-1.448,5.823C39.059,45.908,37.663,47,36.053,47z M27.794,34.763
		c-0.188,0-0.419,0.119-0.484,0.38l-1.448,5.822c-0.066,0.268,0.097,0.54,0.365,0.606l9.704,2.414
		c0.227,0.058,0.527-0.047,0.606-0.365l1.448-5.822c0.066-0.268-0.097-0.54-0.365-0.606l-9.704-2.414
		C27.876,34.768,27.835,34.763,27.794,34.763z"/>
</g>
<path opacity="0.2" fill="#231F20" d="M50,21c-1.105,0-2,0.895-2,2v-0.5l-34.336,7.391C13.305,29.354,12.694,29,12,29
	c-1.105,0-2,0.895-2,2v6c0,1.105,0.895,2,2,2c0.694,0,1.305-0.354,1.664-0.891L48,45.5V45c0,1.105,0.895,2,2,2c1.105,0,2-0.895,2-2
	V23C52,21.895,51.105,21,50,21z"/>
<polygon fill="#C75C5C" points="48,43.5 11,35.5 11,28.5 48,20.5 "/>
<path fill="#E0995E" d="M14,35c0,1.105-0.895,2-2,2l0,0c-1.105,0-2-0.895-2-2v-6c0-1.105,0.895-2,2-2l0,0c1.105,0,2,0.895,2,2V35z"
	/>
<path fill="#E0995E" d="M52,43c0,1.105-0.895,2-2,2l0,0c-1.105,0-2-0.895-2-2V21c0-1.105,0.895-2,2-2l0,0c1.105,0,2,0.895,2,2V43z"
	/>
</svg>
